<svg xmlns="http://www.w3.org/2000/svg" xmlns:xlink="http://www.w3.org/1999/xlink" viewBox="0 0 430.42 196.75"><defs><style>.cls-1{stroke:#fff;stroke-miterlimit:10;stroke-width:4px;fill:url(#Unbenannter_Verlauf_76);}</style><radialGradient id="Unbenannter_Verlauf_76" cx="215.21" cy="98.37" r="165.45" gradientUnits="userSpaceOnUse"><stop offset="0" stop-color="#6dac68"/><stop offset="0.48" stop-color="#6dac6b"/><stop offset="0.79" stop-color="#6dac73"/><stop offset="0.8" stop-color="#6dac73"/><stop offset="1" stop-color="#6dac73"/></radialGradient></defs><title>samen-schatten</title><g id="Ebene_2" data-name="Ebene 2"><g id="Ebene_1-2" data-name="Ebene 1"><path class="cls-1" d="M211.21,2A107.57,107.57,0,0,1,234.9,4.43a71.7,71.7,0,0,1,23.85,10.63c4.81,3.24,9.41,6.77,14,10.3A223.88,223.88,0,0,0,296.34,41c12.89,7.54,25.89,14.9,39.22,21.65,11.57,5.87,23.39,11.18,35.37,16.13a186.51,186.51,0,0,1,27.19,13.51,104.7,104.7,0,0,1,27.69,24.58,11.61,11.61,0,0,1,2.61,7.51,16.75,16.75,0,0,1-1.58,6.72,40.91,40.91,0,0,1-6.42,9.76,100.27,100.27,0,0,1-15,13.91,205.42,205.42,0,0,1-36,22.22,63.88,63.88,0,0,1-17,5.35c-4.78.83-9.58,1.43-14.41,1.86-4.65.42-9.31.79-14,1.05-2.91.16-5.82.36-8.74.5-4.62.22-9.25.49-13.87.78-3.73.23-7.45.44-11.17.78-5.29.48-10.58,1-15.85,1.68a142.85,142.85,0,0,0-17.79,3.43,78.16,78.16,0,0,1-8,1.86,33.43,33.43,0,0,1-14.28-.76,89.79,89.79,0,0,1-11.58-4.28,128,128,0,0,0-25.86-8.08c-3.79-.72-7.61-1.24-11.44-1.69-10.7-1.25-21.43-1.18-32.15-.91-4.84.13-9.68.49-14.51.89-3.38.27-6.77.45-10.15.65-8,.49-16,.55-24,.42-5.4-.08-10.79-.44-16.18-1a158.12,158.12,0,0,1-21.31-3.42,103.73,103.73,0,0,1-24.14-8.73A82.17,82.17,0,0,1,19,148.55,122.59,122.59,0,0,1,6.75,131.86,31.69,31.69,0,0,1,2.44,121a24.27,24.27,0,0,1,1.77-14.7,35.35,35.35,0,0,1,6.39-9.46A68.54,68.54,0,0,1,22.25,87c3.81-2.65,7.78-5,11.78-7.39A40.58,40.58,0,0,1,43.51,76c8.32-2.39,16.8-4.22,25.16-6.45a175.47,175.47,0,0,0,24.18-8,74.46,74.46,0,0,0,16.31-9.25c1.63-1.26,3.13-2.67,4.65-4.07a97.68,97.68,0,0,1,12.94-9.76c12.77-8.3,26.32-15.18,40-21.77q15-7.21,30.43-13.61a6.37,6.37,0,0,1,2-.52c1.67-.11,3.34-.26,5-.28C206.78,2.24,209.34,1.94,211.21,2Z"/></g></g></svg>