<svg xmlns="http://www.w3.org/2000/svg" viewBox="0 0 976.37 381.73"><defs><style>.cls-1{fill:#fff;}.cls-1,.cls-2{stroke:#fff;stroke-miterlimit:10;stroke-width:2px;}.cls-2{fill:none;}</style></defs><title>schere auf</title><g id="Ebene_2" data-name="Ebene 2"><g id="Ebene_1-2" data-name="Ebene 1"><path class="cls-1" d="M537.57,204.16l26,19s-2,38-39,62L461.1,252"/><path class="cls-1" d="M562.57,177.16l-41.09,44.38s-13.49,14.12-25.92,19.6c-10.09,4.45-25.34,9.54-47.51,13.4L84.57,329.16s-43,12-82-8l413-138,47.93-33.07,52.07-35.93S553.57,134.16,562.57,177.16Z"/><path class="cls-1" d="M643.07,126.66s-16-38-56-64l39.5-14.5s22,30,68,10,197.5-80.5,261.5-47.5c0,0,13,6,18,17s-6,15-6,15-49-3-82,10l-243,74"/><path class="cls-1" d="M634.07,342.66s14-23,36-20l172,50s48,13,88,6c0,0,8-1,20-10s-18-30-18-30-22-20-82-30l-204-46s-18,43-48,69Z"/><path class="cls-2" d="M646.06,264.45s-78.09-25.3-80.29-27.19a9.07,9.07,0,0,1-2.15-2.33,13,13,0,0,1,.45-11.27"/><path class="cls-1" d="M516.07,114.66a9.56,9.56,0,0,1-4-10,9.22,9.22,0,0,1,1.68-2.69c1.8-2.26,73.32-41.31,73.32-41.31,11.56.87,21.82,8.76,30.29,18.72,16.06,18.91,25.71,45.28,25.71,45.28s26,60,3,140l-2.5,30.5-44.06,39s-73.93-34.26-75.87-36.4a9,9,0,0,1-1.86-2.58,9.56,9.56,0,0,1,3.34-10.24l3.45-29.75,35.5-31.5s10,6,8-23-9-23-9-23l-40.5-39.5Z"/><path class="cls-1" d="M463.57,150.16l-50,52-50.83-1.67-10.17-5.33-341-137c18-10,50-10,50-10l265,68,133,31,3.85,2.81"/></g></g></svg>